<?xml version="1.0" standalone="no"?>
<!DOCTYPE svg PUBLIC "-//W3C//DTD SVG 20010904//EN"
 "http://www.w3.org/TR/2001/REC-SVG-20010904/DTD/svg10.dtd">
<svg version="1.0" xmlns="http://www.w3.org/2000/svg"
 width="2977.000000pt" height="2977.000000pt" viewBox="0 0 2977.000000 2977.000000"
 preserveAspectRatio="xMidYMid meet">
<metadata>
Created by potrace 1.11, written by Peter Selinger 2001-2013
</metadata>
<g transform="translate(0.000000,2977.000000) scale(0.100000,-0.100000)"
fill="#000000" stroke="none">
<path d="M1502 18410 c-183 -48 -334 -177 -415 -352 -15 -32 -47 -146 -61
-218 -2 -14 -14 -68 -25 -120 -23 -104 -60 -281 -67 -319 -3 -13 -12 -54 -20
-90 -8 -36 -17 -77 -20 -91 -2 -14 -20 -97 -39 -185 -44 -205 -130 -607 -156
-733 -11 -53 -22 -104 -24 -112 -12 -54 -85 -400 -88 -420 -3 -14 -10 -43 -15
-65 -6 -22 -13 -53 -16 -70 -3 -16 -7 -41 -10 -55 -3 -14 -8 -36 -11 -50 -3
-14 -7 -34 -10 -45 -24 -110 -55 -255 -59 -275 -7 -34 -50 -237 -71 -330 -19
-89 -22 -101 -34 -160 -9 -47 -79 -376 -88 -420 -12 -56 -6 -207 12 -270 62
-223 229 -388 455 -449 69 -18 168 -19 3913 -19 3706 0 3845 1 3915 19 105 26
204 82 282 159 84 81 134 162 165 265 18 61 130 573 161 735 3 14 16 79 30
145 14 66 28 131 30 145 3 14 10 45 15 70 6 25 13 56 15 70 3 14 12 57 20 95
29 132 44 200 48 225 9 45 17 84 36 170 16 73 63 291 76 356 6 30 60 285 83
394 11 52 22 106 25 120 8 43 56 264 61 280 2 8 7 29 9 45 7 42 22 114 46 225
11 52 22 104 24 115 2 11 18 83 34 160 89 412 94 450 68 574 -18 85 -62 184
-108 244 -77 101 -198 190 -313 228 l-70 24 -3865 2 c-3781 2 -3867 2 -3938
-17z m4507 -521 c48 -28 78 -67 92 -121 39 -146 -105 -274 -252 -223 -141 50
-169 243 -48 329 68 48 142 53 208 15z m1611 -229 c30 0 87 -56 94 -91 9 -45
-9 -101 -50 -154 -19 -25 -32 -50 -29 -55 3 -5 26 -24 51 -42 25 -18 52 -44
59 -58 13 -26 51 -171 59 -228 5 -40 10 -46 31 -39 8 4 15 18 15 32 0 14 5 25
10 25 6 0 10 -11 10 -25 0 -25 4 -29 53 -66 34 -26 37 -73 5 -106 -21 -23 -39
-30 -37 -15 4 22 -5 30 -42 35 -70 9 -147 54 -169 97 -11 22 -20 46 -20 53 0
8 -7 20 -15 27 -12 10 -18 10 -32 -1 -18 -15 -103 -188 -103 -210 0 -8 44 -61
98 -117 l97 -102 100 -21 c55 -11 114 -22 130 -25 100 -17 149 -31 158 -45 5
-9 7 -36 3 -61 l-7 -45 -157 -52 c-233 -77 -215 -68 -209 -113 3 -22 22 -63
42 -93 21 -29 34 -58 31 -64 -8 -12 -68 -6 -99 10 -12 7 -39 27 -60 45 -20 19
-43 34 -51 34 -7 0 -26 10 -40 21 l-28 22 -76 -26 c-161 -54 -346 -118 -349
-120 -1 -2 2 -19 7 -38 5 -19 11 -45 14 -59 8 -37 43 -191 72 -315 33 -142 35
-158 15 -234 -26 -104 -10 -105 -366 23 -170 62 -415 149 -542 195 l-233 83
-47 -15 c-369 -118 -469 -151 -475 -156 -4 -4 -3 -22 2 -41 6 -19 13 -48 16
-65 3 -16 10 -50 15 -75 6 -25 13 -56 15 -70 3 -13 14 -60 24 -105 10 -45 21
-92 24 -105 2 -14 9 -45 15 -70 5 -25 12 -58 15 -75 3 -16 10 -45 16 -64 9
-33 7 -151 -5 -221 -3 -19 -16 -43 -28 -54 -39 -33 -97 -17 -253 72 -159 91
-486 276 -556 315 -86 48 -132 74 -221 126 -49 28 -90 51 -92 51 -4 0 -149 84
-175 100 -38 25 -62 31 -74 17 -23 -27 -107 -87 -316 -227 -240 -160 -386
-266 -394 -285 -7 -20 24 -49 84 -78 31 -14 64 -34 74 -45 17 -20 17 -21 -3
-41 -24 -24 -110 -51 -160 -51 -20 1 -50 9 -67 18 -17 9 -49 27 -71 39 -21 12
-68 27 -104 33 -63 11 -129 36 -129 49 -1 3 -9 16 -19 28 -18 21 -23 22 -73
13 -29 -6 -66 -13 -83 -16 -33 -6 -223 -55 -430 -111 -71 -19 -138 -36 -148
-38 -9 -2 -21 -6 -25 -9 -5 -3 -19 -7 -33 -10 -13 -2 -58 -14 -99 -25 -41 -12
-83 -23 -92 -26 -163 -39 -228 -63 -238 -89 -8 -20 -5 -91 5 -131 2 -11 9 -38
14 -60 6 -26 22 -50 43 -67 60 -50 76 -68 81 -96 7 -36 -7 -44 -73 -38 -181
17 -253 43 -304 113 -53 72 -107 215 -122 322 -2 20 -7 45 -9 56 -7 32 4 41
102 84 81 35 101 40 165 40 64 -1 97 7 273 66 231 77 283 101 391 183 87 65
121 85 186 106 87 29 145 43 221 51 82 10 90 18 103 100 8 54 77 278 103 339
41 93 42 108 38 396 -1 81 13 133 97 353 l45 119 -35 14 -34 14 0 70 0 70 40
6 c22 4 40 9 40 11 0 3 -17 38 -39 77 -52 97 -101 213 -101 241 0 17 17 37 59
69 33 25 62 46 64 46 3 0 34 17 69 39 102 62 197 107 306 145 97 34 136 41
287 51 39 3 92 8 120 11 61 6 95 34 89 72 -22 130 -12 191 39 249 64 73 171
94 264 53 61 -27 89 -53 119 -112 28 -54 30 -101 9 -155 -8 -21 -19 -58 -25
-83 -6 -25 -12 -52 -15 -62 -11 -48 -55 -105 -73 -94 -5 3 -18 -1 -28 -8 -17
-13 -19 -28 -19 -133 -1 -124 -10 -162 -62 -245 -21 -34 -21 -37 -3 -33 10 2
50 7 87 10 37 4 70 9 73 10 3 2 39 6 80 10 41 4 83 9 92 10 9 2 48 7 85 10 37
4 70 9 73 10 5 3 103 14 165 19 18 1 20 8 20 93 0 50 3 94 6 97 3 3 66 -7 140
-23 74 -17 146 -32 162 -35 15 -2 35 -7 45 -10 9 -3 28 -7 42 -10 14 -2 58
-12 98 -21 67 -15 139 -16 220 0 9 1 46 6 82 10 36 3 76 8 90 10 51 8 107 15
160 20 30 3 67 8 82 11 15 2 85 -7 155 -21 70 -13 139 -26 153 -29 14 -3 61
-12 105 -20 44 -9 91 -18 105 -21 14 -2 36 -7 50 -10 14 -2 39 -7 55 -10 17
-3 41 -7 55 -10 14 -3 41 -8 60 -11 19 -3 50 -9 68 -14 17 -5 32 -5 33 -2 0 4
2 16 4 27 9 45 8 73 -4 126 -27 125 -17 203 32 250 137 132 164 153 230 184
40 18 98 39 130 46 39 8 57 17 58 28 3 40 -4 77 -16 91 -36 41 78 173 133 154
8 -2 22 -4 32 -4z"/>
<path d="M3476 16848 c-70 -15 -74 -23 -57 -133 8 -52 17 -95 21 -95 5 0 120
225 120 235 0 6 -34 3 -84 -7z"/>
<path d="M3860 16033 l-30 -66 23 -19 c148 -124 395 -371 438 -439 18 -27 33
-48 35 -46 8 8 115 369 112 378 -2 5 -72 41 -156 80 -85 38 -179 81 -210 95
-31 15 -85 39 -120 55 l-62 28 -30 -66z"/>
<path d="M6848 16008 l-67 -21 2 -41 c2 -48 -9 -51 -88 -23 l-50 17 -159 -51
-160 -52 326 -107 c179 -59 331 -111 338 -115 14 -9 10 25 -15 140 -8 39 -24
115 -36 170 -12 55 -22 101 -23 101 0 1 -31 -7 -68 -18z"/>
<path d="M4581 15614 c-29 -80 -52 -146 -50 -148 4 -3 136 -72 369 -194 63
-33 165 -85 225 -117 251 -131 278 -145 281 -142 2 2 -5 46 -16 98 -11 52 -22
103 -24 114 -3 11 -16 74 -30 140 -14 66 -26 123 -26 128 0 4 -15 7 -34 7 -31
0 -129 36 -276 103 -103 46 -359 157 -362 157 -2 0 -27 -66 -57 -146z"/>
<path d="M3614 15554 c-7 -20 -85 -206 -109 -259 -7 -16 -34 -77 -59 -135 -26
-58 -65 -140 -87 -184 l-40 -78 48 27 c83 49 216 141 264 183 25 22 67 72 92
111 54 80 69 92 186 151 70 34 81 44 70 54 -8 7 -84 37 -169 65 -85 29 -163
59 -172 68 -16 14 -18 14 -24 -3z"/>
<path d="M28268 18295 c-2 -1 -42 -6 -89 -9 -227 -16 -509 -90 -691 -182 -308
-154 -539 -387 -692 -699 -65 -131 -127 -306 -150 -420 -1 -5 -5 -23 -9 -40
-35 -159 -49 -373 -33 -510 9 -76 41 -195 66 -248 11 -22 20 -44 20 -49 0 -24
103 -163 169 -228 135 -133 305 -231 651 -375 319 -132 434 -196 528 -292 144
-148 164 -349 60 -593 -38 -89 -51 -111 -102 -176 -109 -137 -256 -205 -441
-205 -195 1 -300 61 -351 201 -24 68 -24 243 1 375 17 86 36 168 41 176 3 5 2
10 -3 10 -31 5 -1036 3 -1038 -2 -2 -3 -7 -21 -10 -40 -3 -19 -17 -86 -30
-149 -48 -234 -54 -291 -50 -455 4 -194 38 -308 131 -441 145 -206 393 -324
799 -379 239 -32 631 -19 885 30 601 115 1018 468 1233 1046 62 165 119 401
134 554 32 341 -44 584 -246 785 -127 126 -294 230 -531 330 -41 17 -88 38
-105 45 -16 7 -86 38 -155 68 -309 134 -442 240 -500 394 -83 221 58 589 268
701 171 91 405 78 500 -28 74 -83 88 -246 41 -494 -5 -27 -8 -51 -6 -52 4 -5
1028 -7 1032 -2 8 7 44 210 53 293 10 85 8 248 -3 328 -15 111 -73 256 -139
346 -129 176 -391 316 -661 355 -22 4 -53 9 -69 12 -15 3 -49 8 -75 10 -58 6
-428 13 -433 9z"/>
<path d="M11026 18191 c-3 -9 -12 -50 -20 -91 -9 -41 -29 -140 -47 -220 -17
-80 -33 -156 -35 -170 -3 -14 -10 -45 -15 -70 -6 -25 -12 -52 -14 -61 -2 -9
-12 -59 -24 -110 -11 -52 -22 -106 -25 -122 -2 -15 -7 -35 -10 -45 -3 -9 -7
-28 -10 -42 -2 -14 -9 -45 -15 -70 -5 -25 -12 -60 -16 -77 -3 -18 -13 -63 -21
-100 -9 -38 -18 -77 -19 -88 -4 -23 -8 -42 -29 -140 -8 -39 -17 -83 -20 -98
-2 -15 -7 -35 -10 -45 -3 -9 -8 -30 -10 -47 -3 -16 -14 -70 -25 -120 -25 -111
-98 -451 -105 -485 -5 -26 -22 -110 -30 -146 -2 -12 -14 -66 -26 -120 -12 -55
-23 -108 -26 -119 -16 -82 -31 -151 -38 -182 -2 -10 -7 -29 -10 -43 -3 -14
-24 -113 -46 -220 -22 -107 -45 -213 -50 -235 -5 -22 -26 -116 -45 -210 -40
-193 -41 -197 -59 -280 -3 -11 -19 -85 -36 -165 -17 -80 -32 -152 -35 -160 -2
-8 -7 -28 -9 -45 -5 -25 -29 -140 -52 -245 -3 -13 -12 -55 -20 -93 -8 -38 -17
-73 -20 -78 -3 -5 7 -9 23 -10 124 -2 1054 -1 1057 2 1 2 12 51 25 109 12 58
28 134 36 170 8 36 17 76 19 90 9 50 25 127 46 220 12 52 39 181 61 285 22
105 42 199 45 210 3 11 9 40 14 65 5 25 11 54 14 65 10 49 77 362 81 385 3 14
10 45 15 70 5 25 21 96 35 159 14 63 25 115 25 116 0 1 191 2 425 2 302 0 425
-3 425 -11 0 -6 -7 -45 -16 -86 -9 -41 -23 -104 -30 -140 -8 -36 -17 -76 -20
-90 -3 -14 -17 -79 -31 -145 -14 -66 -27 -129 -29 -140 -3 -11 -9 -42 -15 -70
-6 -27 -12 -54 -13 -60 -1 -5 -8 -37 -15 -70 -6 -33 -16 -78 -21 -100 -6 -22
-12 -51 -14 -65 -2 -14 -9 -45 -15 -70 -5 -25 -12 -56 -15 -70 -2 -14 -9 -45
-15 -70 -5 -25 -12 -56 -15 -70 -8 -38 -52 -246 -70 -325 -8 -39 -17 -82 -20
-95 -5 -28 -36 -174 -43 -205 -14 -66 -15 -65 14 -66 120 -3 1045 0 1049 3 4
4 12 45 83 383 16 77 39 181 50 230 11 50 22 101 25 115 2 14 20 99 40 190 19
91 49 230 66 310 17 80 32 152 35 160 2 8 7 30 10 48 3 18 21 104 40 190 18
87 36 169 38 183 3 13 8 35 11 49 3 14 8 36 10 50 2 14 9 45 15 70 6 25 33
153 61 285 28 132 59 281 70 330 11 50 23 101 25 115 3 14 12 57 20 95 8 39
35 165 60 280 24 116 55 262 69 325 49 231 157 736 161 760 3 14 23 108 45
210 22 102 40 185 40 186 0 0 -243 1 -540 1 -297 0 -540 -2 -540 -4 0 -2 -11
-55 -25 -118 -13 -62 -26 -124 -29 -137 -2 -13 -9 -43 -15 -68 -5 -25 -13 -61
-16 -80 -3 -19 -12 -62 -20 -95 -16 -65 -94 -434 -102 -475 -2 -14 -8 -41 -13
-60 -5 -19 -12 -51 -15 -70 -3 -19 -12 -62 -20 -95 -8 -33 -16 -71 -19 -85 -3
-14 -21 -101 -41 -195 -20 -93 -39 -182 -42 -197 l-5 -28 -428 0 -428 0 18 83
c43 199 91 424 95 447 2 14 11 55 20 93 8 37 22 97 30 135 9 37 17 76 19 87 2
11 29 137 59 280 31 143 58 271 60 285 3 14 10 46 16 73 6 26 14 63 17 83 3
20 11 55 18 79 8 24 11 47 7 52 -4 6 -213 10 -538 10 -478 0 -533 -2 -537 -16z"/>
<path d="M14696 18176 c-9 -47 -12 -62 -40 -186 -14 -63 -28 -126 -30 -140 -3
-14 -17 -81 -31 -150 -34 -157 -31 -147 -44 -200 -5 -25 -13 -61 -16 -80 -3
-19 -8 -43 -11 -52 -3 -9 -7 -27 -9 -40 -3 -13 -9 -45 -15 -73 -6 -27 -12 -59
-14 -70 -2 -11 -16 -72 -30 -135 -14 -63 -27 -126 -30 -140 -4 -24 -15 -75
-70 -330 -13 -63 -43 -200 -65 -305 -38 -184 -95 -448 -166 -780 -19 -88 -37
-171 -39 -185 -2 -14 -9 -45 -15 -70 -5 -25 -12 -56 -14 -70 -3 -14 -10 -43
-15 -65 -6 -22 -13 -57 -16 -79 -4 -21 -8 -41 -10 -45 -2 -3 -7 -22 -10 -41
-3 -19 -12 -64 -20 -100 -8 -36 -17 -77 -20 -92 -22 -110 -75 -358 -91 -423
-8 -33 -16 -75 -20 -93 -5 -33 -32 -160 -41 -197 -3 -11 -8 -33 -10 -48 -3
-16 -21 -99 -39 -185 -18 -87 -32 -159 -30 -161 5 -5 2705 -4 2710 1 2 2 6 15
9 28 2 14 14 70 26 125 12 55 23 109 25 120 3 11 9 40 15 65 5 25 12 56 14 70
2 14 16 77 30 140 14 63 27 126 30 140 3 14 12 57 20 95 9 39 16 73 16 77 0 5
-368 9 -817 10 -710 3 -818 5 -815 18 2 8 7 32 12 55 5 22 11 49 13 60 5 18
53 245 63 290 24 119 34 164 38 180 2 6 6 28 10 50 5 22 14 65 21 95 8 30 16
69 19 85 3 17 8 41 11 55 3 14 11 52 18 85 l12 60 737 3 737 2 15 73 c13 59
35 168 51 247 2 8 13 62 25 120 12 58 24 114 26 125 2 11 8 43 14 71 6 28 13
63 16 79 3 15 11 55 19 89 8 33 12 62 10 64 -2 2 -333 4 -735 4 l-732 0 7 36
c3 21 17 84 30 142 27 120 85 385 91 415 2 11 13 63 25 115 11 52 25 117 29
144 5 27 14 52 19 55 5 4 357 6 781 6 424 0 775 2 779 5 4 3 13 34 20 70 16
81 15 77 40 185 11 50 22 101 25 115 8 40 25 123 30 145 2 11 19 88 36 170 17
83 33 157 36 166 4 14 -118 16 -1320 16 l-1324 0 -6 -31z"/>
<path d="M18684 18073 c-35 -74 -64 -136 -64 -138 0 -2 -36 -79 -80 -170 -44
-91 -80 -168 -80 -170 0 -2 -24 -55 -53 -117 -30 -62 -66 -140 -82 -173 -45
-96 -184 -394 -218 -465 -17 -36 -31 -67 -32 -70 -1 -3 -17 -39 -37 -80 -37
-77 -89 -188 -138 -295 -15 -33 -51 -109 -80 -170 -29 -60 -65 -137 -80 -170
-15 -33 -49 -105 -75 -160 -26 -55 -73 -156 -105 -225 -32 -69 -79 -170 -105
-225 -51 -108 -101 -215 -145 -310 -15 -33 -48 -103 -73 -155 -25 -52 -61
-130 -81 -172 -20 -43 -52 -113 -72 -155 -20 -43 -49 -105 -64 -138 -15 -33
-51 -109 -80 -170 -28 -60 -106 -226 -172 -368 -66 -141 -128 -274 -138 -295
-10 -20 -17 -39 -15 -41 3 -3 1021 -4 1096 -2 11 1 27 28 48 84 18 45 36 90
42 100 5 9 17 39 25 65 9 26 24 65 34 87 10 22 62 151 115 286 l97 246 544 0
544 0 1 -21 c1 -12 1 -32 1 -46 0 -14 -4 -175 -7 -359 -4 -183 -8 -358 -10
-387 -2 -44 1 -54 14 -55 23 0 1073 0 1089 0 13 1 13 55 -3 436 -2 55 -7 174
-10 265 -7 206 -14 389 -20 550 -5 128 -12 307 -20 555 -4 131 -8 243 -20 545
-5 118 -9 236 -20 545 -6 194 -15 426 -20 550 -4 103 -12 325 -20 545 -2 52
-6 183 -10 290 -4 107 -8 215 -9 240 l-1 45 -674 1 -674 1 -63 -134z m531
-1040 c-4 -186 -8 -423 -10 -528 -9 -492 -22 -1123 -24 -1146 -1 -15 -40 -16
-386 -17 -212 0 -385 3 -385 6 0 7 344 879 370 937 10 22 25 61 34 87 8 26 20
56 26 65 5 10 30 72 56 138 56 146 151 389 169 430 11 25 109 273 136 343 5
12 11 22 14 22 3 0 3 -152 0 -337z"/>
<path d="M21574 18196 c-2 -6 -6 -22 -8 -36 -3 -14 -25 -120 -50 -236 -25
-116 -48 -226 -51 -244 -3 -18 -8 -36 -10 -39 -2 -4 -6 -26 -10 -51 -4 -25 -8
-47 -10 -51 -2 -3 -7 -21 -10 -40 -3 -19 -17 -83 -30 -144 -13 -60 -31 -144
-40 -185 -9 -41 -18 -84 -20 -94 -8 -36 -47 -221 -51 -244 -3 -13 -16 -76 -30
-140 -14 -64 -41 -191 -60 -282 -20 -91 -37 -172 -39 -180 -2 -8 -15 -71 -30
-140 -15 -69 -28 -134 -31 -145 -2 -11 -7 -33 -10 -50 -3 -16 -11 -58 -19 -93
-8 -34 -17 -77 -20 -95 -3 -17 -12 -59 -20 -92 -8 -33 -16 -71 -19 -85 -2 -14
-27 -133 -56 -265 -89 -416 -98 -459 -111 -520 -7 -33 -13 -62 -14 -65 -1 -3
-5 -23 -10 -45 -4 -22 -10 -49 -12 -60 -2 -11 -6 -31 -9 -45 -3 -14 -11 -53
-19 -86 -8 -34 -16 -73 -19 -85 -2 -13 -16 -80 -31 -149 -15 -69 -29 -136 -31
-150 -3 -14 -9 -41 -14 -60 -5 -19 -11 -51 -14 -70 -3 -19 -19 -91 -34 -160
-16 -69 -28 -127 -26 -129 5 -5 1648 -3 1714 3 87 7 179 17 203 22 12 2 42 7
67 10 25 3 95 19 155 34 276 71 476 179 666 358 277 261 477 657 656 1297 13
50 26 95 27 100 1 6 5 19 9 30 3 11 8 31 11 45 3 14 17 72 31 130 30 119 111
487 119 540 3 19 8 46 11 60 10 54 14 77 20 115 3 22 7 47 10 55 2 8 6 35 9
60 12 102 18 146 21 168 22 138 26 550 7 682 -55 366 -202 595 -467 727 -81
40 -202 79 -305 97 -47 8 -101 18 -120 22 -65 12 -1871 12 -1876 0z m1387
-800 c179 -34 268 -119 304 -291 12 -55 13 -327 2 -380 -3 -11 -8 -51 -13 -90
-4 -38 -8 -72 -9 -75 -1 -3 -5 -25 -9 -50 -51 -301 -171 -857 -236 -1090 -23
-80 -42 -152 -44 -160 -3 -8 -15 -49 -29 -90 -163 -489 -323 -677 -617 -724
-41 -7 -160 -12 -265 -12 -184 1 -190 2 -189 21 1 20 46 237 84 405 10 47 22
99 24 115 3 17 8 41 11 55 3 14 8 36 11 50 3 13 12 56 20 95 9 38 17 79 20 89
37 180 46 225 50 246 4 21 16 74 29 130 16 68 48 221 51 245 2 17 6 36 9 44 4
11 21 89 49 227 3 10 9 39 15 64 5 25 12 56 15 70 10 52 97 464 140 665 25
116 47 221 50 235 16 92 47 215 55 219 19 12 397 2 472 -13z"/>
<path d="M25264 18176 c-4 -17 -9 -35 -10 -41 -4 -14 -54 -255 -60 -285 -3
-14 -25 -119 -50 -233 -56 -258 -53 -242 -64 -302 -6 -27 -12 -59 -15 -70 -12
-54 -55 -250 -59 -273 -2 -15 -16 -79 -30 -142 -13 -63 -27 -127 -30 -143 -2
-15 -7 -35 -10 -45 -3 -9 -7 -28 -10 -42 -2 -14 -29 -142 -60 -285 -30 -143
-57 -271 -60 -285 -2 -14 -16 -77 -30 -140 -14 -63 -28 -126 -30 -140 -3 -14
-16 -78 -30 -143 -14 -65 -28 -128 -30 -140 -3 -12 -14 -65 -26 -117 -11 -52
-23 -108 -26 -125 -3 -16 -9 -46 -14 -65 -7 -30 -43 -201 -56 -269 -3 -12 -12
-53 -20 -90 -9 -36 -18 -77 -20 -91 -4 -25 -29 -141 -59 -280 -14 -64 -90
-420 -110 -515 -4 -16 -8 -39 -10 -50 -2 -11 -13 -64 -25 -118 -12 -54 -20
-101 -16 -104 4 -4 877 -7 1047 -4 25 1 32 20 55 148 1 6 11 53 23 105 11 51
23 104 25 118 3 14 16 79 30 145 32 144 65 300 70 329 2 11 13 62 25 111 11
50 22 101 25 115 12 63 28 140 71 340 25 118 50 237 55 264 6 27 14 65 20 85
5 20 12 50 15 66 11 61 16 89 30 149 8 33 16 72 19 86 4 24 53 252 62 295 3
11 7 29 9 41 50 234 202 950 266 1249 39 182 73 341 76 355 5 26 32 153 39
185 3 11 7 31 10 45 3 14 18 88 35 165 16 77 31 147 32 155 2 13 -64 15 -535
16 l-537 1 -7 -31z"/>
<path d="M7589 12456 c-141 -37 -232 -151 -246 -307 -10 -111 30 -166 169
-234 45 -22 91 -52 102 -67 17 -24 18 -32 7 -67 -21 -72 -90 -103 -130 -60
-18 20 -20 47 -6 87 5 15 11 14 -118 16 -124 2 -121 5 -120 -110 0 -115 68
-166 228 -171 229 -6 361 85 401 278 17 84 -6 170 -56 212 -12 10 -66 41 -120
68 -101 51 -125 77 -116 124 3 11 5 23 5 26 1 4 13 18 27 32 50 50 110 20 101
-51 l-4 -40 108 1 108 0 9 41 c10 52 -1 128 -25 161 -32 44 -95 67 -191 70
-48 2 -108 -2 -133 -9z"/>
<path d="M17060 12454 c-96 -26 -163 -80 -202 -164 -61 -131 -56 -243 14 -306
12 -12 60 -40 106 -63 45 -23 91 -50 102 -61 45 -45 10 -144 -55 -156 -54 -10
-79 17 -72 76 l5 45 -108 0 c-60 0 -111 -2 -114 -5 -3 -3 -8 -21 -11 -40 -32
-171 54 -244 275 -236 119 4 189 29 253 91 91 87 130 252 82 345 -21 41 -70
78 -163 122 -97 46 -126 80 -111 132 10 35 51 76 78 76 37 0 55 -25 53 -73
l-3 -45 106 0 c58 0 107 4 110 8 12 20 12 118 0 155 -16 46 -63 90 -108 100
-61 14 -182 13 -237 -1z"/>
<path d="M27985 12454 c-52 -14 -110 -49 -150 -91 -54 -57 -95 -177 -89 -258
8 -93 39 -124 197 -201 61 -30 87 -58 87 -96 0 -36 -32 -97 -52 -100 -80 -9
-102 7 -95 74 l5 43 -111 0 -111 0 -9 -35 c-14 -53 -4 -142 18 -172 11 -15 40
-37 65 -50 40 -21 58 -23 170 -22 117 0 129 2 184 29 98 47 161 128 186 241
11 47 7 115 -9 156 -15 38 -71 83 -153 122 -111 54 -128 69 -128 117 0 31 7
47 29 70 53 53 106 30 104 -44 l-2 -44 110 0 c103 1 109 2 110 21 0 12 3 32 5
46 8 44 -15 125 -44 153 -52 50 -204 69 -317 41z"/>
<path d="M19649 12450 c-79 -20 -156 -82 -186 -150 -21 -48 -19 -135 5 -197
l20 -52 -46 -27 c-170 -100 -233 -319 -122 -425 71 -68 211 -76 333 -21 l68
31 11 -24 c6 -14 14 -25 17 -25 89 -6 241 -3 241 5 0 6 -18 44 -39 85 l-38 76
39 39 c39 40 118 183 118 214 0 15 -12 17 -95 16 -52 0 -96 -3 -98 -5 -2 -3
-11 -24 -22 -48 -10 -23 -23 -41 -28 -39 -6 2 -24 30 -40 62 -28 55 -29 60
-13 69 54 32 118 92 147 138 30 46 34 61 34 120 0 78 -18 110 -80 142 -43 22
-166 31 -226 16z m95 -130 c44 -16 36 -62 -21 -118 l-47 -46 -18 40 c-28 63
-21 96 27 122 25 14 28 14 59 2z m-134 -499 l39 -79 -31 -11 c-73 -26 -117 -3
-123 64 -3 29 3 43 27 70 16 19 34 35 39 35 5 0 27 -36 49 -79z"/>
<path d="M186 12433 c-3 -10 -17 -72 -31 -138 -14 -66 -28 -129 -30 -140 -3
-11 -7 -29 -9 -40 -16 -79 -39 -187 -60 -285 -14 -63 -27 -126 -30 -140 -2
-14 -9 -47 -15 -74 -7 -27 -10 -51 -7 -53 2 -2 39 -4 83 -5 153 0 153 0 153
23 0 12 6 47 14 78 8 31 17 70 20 86 2 17 12 62 20 100 9 39 16 73 16 76 0 6
128 4 134 -2 4 -4 -57 -300 -69 -339 -7 -22 -8 -22 125 -21 117 0 107 -5 119
54 6 28 13 63 16 77 5 27 13 63 20 95 11 48 87 402 91 425 2 14 11 57 20 95
14 62 19 87 27 129 1 7 -35 12 -115 14 l-116 3 -6 -28 c-4 -15 -8 -39 -11 -53
-4 -24 -27 -129 -30 -140 -1 -3 -5 -26 -9 -52 -5 -27 -11 -49 -15 -49 -16 -3
-127 -5 -132 -2 -4 1 0 29 7 60 16 69 22 96 30 142 3 19 10 45 15 58 23 61 20
63 -105 63 -101 0 -115 -2 -120 -17z"/>
<path d="M1685 12428 c-7 -32 -40 -186 -76 -358 -16 -80 -34 -161 -39 -180 -5
-19 -12 -49 -15 -67 -3 -17 -16 -82 -29 -145 -14 -62 -23 -114 -21 -117 2 -2
124 -4 269 -5 l265 -1 21 88 c11 49 20 93 20 98 0 5 -65 9 -150 9 -173 0 -162
-9 -132 110 l17 65 133 0 c103 0 135 3 141 14 5 8 14 41 21 75 6 34 13 69 16
79 5 16 -6 17 -134 17 l-139 0 15 75 15 75 148 0 c146 0 149 0 154 23 29 132
35 159 35 163 0 2 -119 4 -265 4 l-265 0 -5 -22z"/>
<path d="M3232 12422 c-19 -41 -295 -646 -336 -737 -20 -44 -41 -88 -47 -98
-6 -11 -8 -22 -5 -25 3 -3 58 -5 122 -4 131 0 123 -4 154 88 13 38 27 64 38
66 9 2 51 4 92 3 l75 -1 -3 -79 -3 -80 123 2 123 1 -2 84 c-2 135 -14 557 -18
638 -2 41 -4 96 -4 123 l-1 47 -147 0 -148 0 -13 -28z m124 -180 c-4 -7 -16
-219 -19 -339 0 -9 -20 -13 -63 -13 l-63 0 14 38 c31 86 115 304 120 313 4 5
8 9 11 9 3 0 3 -4 0 -8z"/>
<path d="M4576 12438 c-3 -7 -11 -47 -20 -88 -39 -189 -119 -566 -142 -669
-13 -62 -23 -116 -20 -118 4 -4 163 -7 217 -4 12 1 19 15 24 49 5 26 10 52 11
57 2 6 6 24 9 40 10 55 37 180 41 196 3 12 15 16 50 14 79 -5 81 -15 47 -200
-10 -55 -18 -106 -17 -112 1 -7 2 -21 3 -30 1 -16 13 -18 122 -16 67 1 124 4
126 7 3 2 -1 14 -7 26 -13 24 -8 78 16 170 19 71 20 161 3 188 -8 12 -30 30
-49 39 l-35 16 27 8 c88 23 149 121 162 256 7 72 -23 130 -82 160 -40 20 -58
22 -263 23 -170 0 -220 -2 -223 -12z m303 -174 c21 -15 23 -22 18 -65 -9 -76
-42 -112 -110 -123 -53 -9 -56 -2 -36 82 10 42 18 87 19 100 0 19 5 22 43 22
23 0 53 -7 66 -16z"/>
<path d="M5994 12418 c-12 -49 -21 -90 -30 -138 l-5 -29 80 1 c44 1 83 -1 86
-4 4 -3 2 -23 -4 -44 -5 -22 -12 -52 -15 -69 -3 -16 -7 -39 -9 -50 -3 -11 -22
-99 -42 -195 -20 -96 -39 -184 -41 -195 -3 -11 -9 -42 -14 -68 -5 -27 -12 -53
-15 -58 -7 -10 -2 -10 135 -11 50 -1 93 2 96 5 6 5 22 77 63 272 11 55 28 132
36 170 8 39 22 106 31 150 8 44 20 84 25 89 5 6 46 10 91 10 l82 1 18 85 c9
47 17 91 18 98 0 9 -64 12 -289 12 l-289 0 -8 -32z"/>
<path d="M10995 12418 c-4 -18 -9 -42 -10 -53 -2 -11 -11 -54 -20 -95 -25
-110 -44 -197 -50 -228 -3 -15 -27 -128 -53 -252 -27 -124 -47 -227 -46 -229
3 -3 141 -4 210 -2 17 1 24 10 30 39 4 20 8 39 9 42 4 15 15 69 20 95 3 17 13
66 23 110 l17 80 68 0 c75 1 74 2 56 -75 -6 -25 -12 -54 -15 -65 -10 -52 -26
-131 -40 -192 -7 -37 -16 -35 111 -35 116 0 122 1 122 15 0 6 3 23 6 37 8 34
26 128 33 164 3 16 7 32 9 36 2 4 7 22 10 41 3 19 22 108 42 199 19 91 36 172
38 181 2 9 13 60 24 113 12 52 21 98 21 101 0 3 -53 5 -118 5 l-117 0 -29
-142 c-40 -197 -31 -181 -109 -183 -37 0 -67 0 -67 2 0 1 14 68 31 150 17 81
31 152 32 157 1 7 -40 12 -114 14 l-116 3 -8 -33z"/>
<path d="M12486 12368 c-9 -46 -18 -92 -21 -103 -2 -11 -8 -40 -14 -65 -11
-48 -67 -309 -75 -350 -2 -14 -9 -45 -15 -70 -5 -25 -12 -58 -15 -75 -4 -16
-12 -56 -20 -87 -12 -52 -12 -58 3 -59 18 -1 409 -1 482 0 l46 1 19 95 20 95
-153 0 -153 0 4 23 c18 98 32 147 41 148 5 1 67 2 137 3 70 1 129 4 131 6 3 3
8 23 11 46 4 22 11 56 16 75 18 61 22 59 -126 59 l-135 0 6 38 c3 20 10 54 16
74 l10 37 146 3 146 3 18 75 c30 123 58 110 -244 110 l-264 0 -17 -82z"/>
<path d="M14031 12388 c-16 -35 -47 -103 -70 -151 -22 -49 -48 -105 -57 -125
-9 -20 -31 -68 -49 -107 -18 -38 -59 -128 -91 -200 -32 -71 -71 -155 -85 -185
-15 -30 -26 -56 -24 -58 3 -3 140 -5 215 -3 35 1 36 2 59 71 13 39 29 74 35
78 6 5 47 8 91 8 l80 -1 -2 -78 c-1 -73 0 -77 20 -78 29 -1 198 -1 215 0 11 1
12 35 7 174 -7 222 -17 552 -19 642 l-1 70 -148 3 -147 3 -29 -63z m132 -235
c-2 -43 -5 -105 -7 -138 -2 -33 -4 -75 -5 -92 l-1 -33 -66 0 c-52 0 -64 3 -57
13 5 6 36 83 68 170 32 86 61 157 65 157 4 0 5 -35 3 -77z"/>
<path d="M15390 12447 c0 -4 -48 -237 -55 -267 -15 -65 -25 -110 -30 -140 -3
-19 -8 -42 -10 -50 -2 -8 -6 -26 -9 -40 -5 -28 -10 -48 -28 -130 -15 -69 -13
-59 -21 -100 -13 -62 -15 -74 -25 -117 -7 -31 -7 -43 2 -44 48 -4 387 2 411 8
17 4 32 7 35 8 64 15 148 96 186 180 22 48 65 200 80 280 43 235 30 329 -54
385 -36 24 -41 25 -259 28 -123 2 -223 2 -223 -1z m305 -187 c20 -22 18 -74
-9 -212 -55 -281 -83 -327 -197 -319 -15 1 -15 7 -3 59 7 31 15 68 18 82 19
99 26 132 30 138 2 4 7 26 10 48 7 47 11 64 25 124 5 25 12 57 16 73 5 24 10
27 49 27 30 0 48 -6 61 -20z"/>
<path d="M22114 12408 c-4 -24 -8 -45 -9 -48 -5 -25 -18 -90 -22 -110 -2 -13
-13 -60 -23 -105 -10 -45 -21 -92 -24 -105 -2 -14 -17 -81 -31 -150 -25 -118
-29 -136 -39 -185 -2 -11 -8 -38 -13 -60 -5 -22 -9 -51 -9 -65 l1 -24 196 2
c197 1 261 9 313 35 107 56 187 225 157 333 -15 53 -33 74 -75 88 l-36 12 40
18 c133 59 186 285 86 367 -37 31 -100 39 -305 39 l-199 0 -8 -42z m298 -140
c32 -25 26 -88 -11 -131 -23 -26 -38 -34 -70 -35 -48 -3 -48 -4 -24 103 l16
75 37 0 c20 0 43 -6 52 -12z m-59 -343 c27 -26 30 -70 9 -119 -27 -61 -68 -83
-139 -77 -17 1 -16 15 8 120 l21 91 43 0 c25 0 50 -6 58 -15z"/>
<path d="M23737 12393 c-91 -202 -139 -307 -171 -375 -20 -42 -36 -79 -36 -81
0 -3 -20 -47 -44 -98 -99 -212 -126 -272 -121 -277 2 -3 57 -4 121 -4 85 1
119 4 125 14 5 7 18 41 30 76 11 34 24 63 27 63 20 4 159 5 168 2 8 -3 10 -29
7 -81 l-5 -77 74 2 c40 1 96 2 124 2 l52 1 -4 88 c-1 48 -6 182 -9 297 -3 116
-8 255 -10 310 -2 55 -4 121 -4 148 l-1 47 -148 0 -149 0 -26 -57z m128 -303
c-4 -88 -8 -168 -9 -178 -2 -14 -15 -18 -64 -20 l-62 -3 21 58 c11 32 27 72
34 88 7 17 28 72 46 122 19 51 36 93 37 93 2 0 1 -72 -3 -160z"/>
<path d="M25096 12438 c-2 -7 -25 -112 -50 -233 -46 -215 -59 -275 -61 -285
-3 -11 -26 -117 -30 -140 -3 -14 -10 -45 -15 -70 -5 -25 -12 -56 -15 -70 -2
-14 -7 -37 -11 -52 -5 -27 -5 -28 43 -29 61 -1 363 0 425 0 l47 1 16 73 c29
133 45 117 -119 117 l-143 0 28 128 c15 70 30 138 33 152 2 14 21 102 41 195
19 94 38 182 41 198 l6 27 -117 0 c-84 0 -117 -3 -119 -12z"/>
<path d="M26459 12443 c0 -5 -2 -15 -4 -23 -6 -24 -86 -402 -91 -429 -3 -12
-11 -51 -19 -85 -8 -33 -16 -74 -19 -91 -3 -16 -17 -79 -31 -139 -13 -61 -23
-112 -20 -114 2 -2 119 -4 260 -5 248 -2 256 -1 260 18 8 34 35 166 35 171 0
2 -63 4 -140 4 -154 0 -146 -4 -129 70 6 25 13 56 15 70 3 14 7 32 9 40 2 8 7
29 9 45 3 17 23 112 45 212 22 99 43 196 46 214 3 18 8 36 11 41 3 4 -49 8
-115 8 -67 0 -121 -3 -122 -7z"/>
<path d="M8681 11751 c-6 -31 -13 -60 -14 -66 -2 -5 -7 -31 -11 -57 -5 -26 -9
-51 -10 -55 0 -5 15 -8 34 -9 22 0 36 -5 38 -15 4 -25 -38 -80 -73 -95 -25
-10 -35 -21 -36 -37 0 -12 -3 -34 -5 -49 -4 -24 -1 -28 19 -28 43 0 116 31
148 63 17 18 42 55 55 82 21 46 74 263 74 304 0 17 -11 18 -104 18 l-105 -1
-10 -55z"/>
</g>
</svg>
